<?xml version="1.0" encoding="utf-8"?>
<!-- Generator: Adobe Illustrator 16.0.0, SVG Export Plug-In . SVG Version: 6.00 Build 0)  -->
<!DOCTYPE svg PUBLIC "-//W3C//DTD SVG 1.1//EN" "http://www.w3.org/Graphics/SVG/1.1/DTD/svg11.dtd">
<svg version="1.1" id="Layer_1" xmlns="http://www.w3.org/2000/svg" xmlns:xlink="http://www.w3.org/1999/xlink" x="0px" y="0px"
	 width="50px" height="50px" viewBox="0 0 50 50" enable-background="new 0 0 50 50" xml:space="preserve">
<g>
	<path fill="none" stroke="#EF3F49" stroke-width="1.5" stroke-linecap="round" stroke-linejoin="round" d="M43.577,47.129
		c0,1.013-0.899,1.841-2.001,1.841H8.424c-1.102,0-2.001-0.828-2.001-1.841V2.872c0-1.013,0.899-1.841,2-1.841h33.153
		c1.1,0,1.998,0.828,1.998,1.841v44.257H43.577z"/>
	<path fill="#EF3F49" d="M25,40.979c1.331-0.009,2.417,1.064,2.423,2.395c0,0.002,0,0.002,0,0.003c0,1.323-1.085,2.396-2.423,2.396
		c-1.329,0.008-2.415-1.063-2.422-2.395c0-0.001,0-0.001,0-0.002C22.577,42.053,23.661,40.979,25,40.979z"/>
	<path fill="none" stroke="#EF3F49" stroke-width="1.2" stroke-linecap="round" stroke-linejoin="round" d="M6.423,37.784h37.052"/>
</g>
</svg>
