<?xml version="1.0" encoding="utf-8"?>
<!-- Generator: Adobe Illustrator 16.0.0, SVG Export Plug-In . SVG Version: 6.00 Build 0)  -->
<!DOCTYPE svg PUBLIC "-//W3C//DTD SVG 1.1//EN" "http://www.w3.org/Graphics/SVG/1.1/DTD/svg11.dtd">
<svg version="1.1" id="Layer_1" xmlns="http://www.w3.org/2000/svg" xmlns:xlink="http://www.w3.org/1999/xlink" x="0px" y="0px"
	 width="50px" height="50px" viewBox="15 1 50 50" enable-background="new 15 1 50 50" xml:space="preserve">
<g>
	<path fill="none" stroke="#FD3744" stroke-width="1.5" stroke-linecap="round" stroke-linejoin="round" d="M58.014,47.7
		c0,0.982-0.871,1.785-1.939,1.785H23.928c-1.069,0-1.941-0.803-1.941-1.785V4.785C21.987,3.803,22.859,3,23.927,3h32.146
		c1.066,0,1.938,0.803,1.938,1.785V47.7H58.014z"/>
	<path fill="#FD3744" d="M40.001,41.737c1.289-0.008,2.342,1.032,2.349,2.322c0,0.001,0,0.001,0,0.002
		c0,1.284-1.051,2.325-2.349,2.325c-1.29,0.008-2.342-1.032-2.35-2.322c0-0.001,0-0.001,0-0.003
		C37.651,42.778,38.702,41.737,40.001,41.737z"/>
	<path fill="none" stroke="#FD3744" stroke-width="1.2" stroke-linecap="round" stroke-linejoin="round" d="M21.987,38.64h35.93"/>
</g>
</svg>
