<svg xmlns="http://www.w3.org/2000/svg" width="50" height="50" viewBox="0 0 50 50">
    <g fill="none" fill-rule="evenodd">
        <text fill="#282E3E" font-family="Raleway-Bold, Raleway" font-size="8.64" font-weight="bold">
            <tspan x="10.311" y="30.215">March </tspan> <tspan x="13.412" y="38.375">2018</tspan>
        </text>
        <g fill="#000" fill-rule="nonzero">
            <path d="M44.962 4.646h-8.764V1.141a.876.876 0 1 0-1.753 0v7.888a.876.876 0 1 0 1.753 0v-2.63h8.764c1.452 0 2.63 1.181 2.63 2.63v7.887H2.017V9.03c0-1.452 1.18-2.63 2.63-2.63h7.01V4.646h-7.01A4.389 4.389 0 0 0 .263 9.03v35.933a4.389 4.389 0 0 0 4.382 4.383h40.32a4.389 4.389 0 0 0 4.381-4.383V9.03a4.39 4.39 0 0 0-4.385-4.383zm2.63 40.316c0 1.452-1.181 2.63-2.63 2.63H4.646a2.632 2.632 0 0 1-2.629-2.63V18.67h45.578v26.293h-.003z"/>
            <path d="M14.287 9.905a.876.876 0 0 0 .877-.876v-2.63h17.528V4.646H15.164V1.141a.876.876 0 1 0-1.753 0v7.888c0 .484.391.876.876.876z"/>
        </g>
    </g>
</svg>
