<svg xmlns="http://www.w3.org/2000/svg" width="37" height="37" viewBox="0 0 37 37">
    <g fill="none" fill-rule="evenodd">
        <path fill="#FD3744" d="M35.326 12.362l-1.549 1.084c2.242 6.669-.102 14.355-6.24 18.652-7.438 5.21-17.66 3.494-22.783-3.823-5.123-7.317-3.24-17.508 4.2-22.717 6.137-4.298 14.161-3.871 19.661.516l1.549-1.085C24.046-.199 14.904-.806 7.92 4.083-.358 9.88-2.447 21.181 3.255 29.324c5.702 8.144 17.036 10.046 25.315 4.249 6.982-4.89 9.54-13.688 6.756-21.211z"/>
        <path stroke="#FD3744" stroke-linecap="square" stroke-width="1.5" d="M36.406 5.594L18.241 23.759M11.8 17.342l6.29 6.421"/>
    </g>
</svg>
