<?xml version="1.0" encoding="utf-8"?>
<!-- Generator: Adobe Illustrator 16.0.0, SVG Export Plug-In . SVG Version: 6.00 Build 0)  -->
<!DOCTYPE svg PUBLIC "-//W3C//DTD SVG 1.1//EN" "http://www.w3.org/Graphics/SVG/1.1/DTD/svg11.dtd">
<svg version="1.1" id="Layer_1" xmlns="http://www.w3.org/2000/svg" xmlns:xlink="http://www.w3.org/1999/xlink" x="0px" y="0px"
	 width="50px" height="50px" viewBox="4.5 4.5 50 50" enable-background="new 4.5 4.5 50 50" xml:space="preserve">
<path fill="#FD3744" d="M52.684,36.277L47.805,27.5c-0.114-0.201-0.249-0.391-0.4-0.566V11.777C47.401,8.043,44.31,5.003,40.51,5
	H11.895C8.096,5.003,5.003,8.043,5,11.777v28.125c0.003,3.734,3.096,6.773,6.895,6.777h7.982c0.267,0.193,0.56,0.36,0.885,0.481
	v0.002l0.017,0.007l14.185,5.555c1.694,0.839,3.604,1.274,5.568,1.275c2.278-0.008,4.52-0.577,6.523-1.661
	c4.375-2.352,6.941-6.642,6.944-10.961C54,39.633,53.577,37.883,52.684,36.277L52.684,36.277z M8.167,43.389
	c-0.933-0.913-1.506-2.163-1.506-3.542V11.677c0-1.378,0.574-2.629,1.506-3.542c0.967-0.947,2.267-1.476,3.619-1.474h28.783
	c1.407,0,2.687,0.562,3.618,1.474c0.934,0.914,1.508,2.164,1.508,3.542V25.68c-0.353-0.106-0.719-0.161-1.088-0.162
	c-0.604,0-1.221,0.144-1.786,0.446c-0.599,0.318-1.097,0.796-1.442,1.378l-0.101-0.179l0.001,0.001
	c-0.681-1.221-1.973-1.911-3.298-1.911c-0.604,0-1.223,0.144-1.789,0.449c-0.311,0.166-0.57,0.393-0.774,0.646
	c-0.307,0.381-0.5,0.817-0.623,1.265c-0.012,0.039-0.013,0.081-0.023,0.121c-0.667-0.511-1.483-0.787-2.325-0.788
	c-0.605,0-1.223,0.144-1.79,0.449c-0.597,0.318-1.094,0.793-1.438,1.375l-3.372-6.038c-0.683-1.218-1.972-1.907-3.299-1.907
	c-0.604,0-1.222,0.144-1.789,0.448l0.001-0.001c-1.195,0.633-1.944,1.875-1.947,3.227c0,0.592,0.147,1.195,0.455,1.748l0.001,0.002
	l8.791,15.749l-4.709-1.744l-0.004-0.001c-0.417-0.153-0.859-0.232-1.303-0.231c-1.521,0-2.954,0.907-3.519,2.384
	c0,0.002,0,0.006-0.002,0.008c-0.155,0.406-0.234,0.836-0.234,1.27c0,0.406,0.075,0.803,0.207,1.182h-6.707
	C10.434,44.864,9.134,44.336,8.167,43.389z M46.268,50.877c-1.757,0.952-3.723,1.455-5.722,1.462c-1.732,0-3.402-0.389-4.859-1.121
	l-0.078-0.035L21.233,45.55l-0.018-0.007c-0.757-0.277-1.262-0.996-1.266-1.803c0-0.221,0.039-0.442,0.122-0.662v-0.003
	c0.146-0.386,0.402-0.692,0.727-0.908c0.322-0.216,0.712-0.336,1.105-0.336c0.224,0,0.45,0.038,0.673,0.12l7.028,2.616
	c0.357,0.132,0.755,0.032,1.006-0.251c0.251-0.282,0.295-0.685,0.112-1.015L20.711,25.275c-0.155-0.279-0.237-0.592-0.237-0.911
	c0.001-0.684,0.368-1.346,1.013-1.69l0.001-0.001c0.294-0.158,0.607-0.232,0.923-0.232c0.694,0,1.37,0.365,1.72,0.997l4.931,8.878
	l0.009,0.015l3.006,5.414c0.24,0.434,0.794,0.593,1.232,0.355c0.441-0.236,0.603-0.78,0.362-1.214l-3.019-5.438
	c-0.151-0.276-0.23-0.585-0.23-0.898c0-0.707,0.388-1.356,1.011-1.691c0.295-0.16,0.61-0.232,0.926-0.232
	c0.691,0,1.36,0.357,1.714,0.988l3.02,5.433c0.24,0.434,0.794,0.594,1.234,0.355c0.439-0.235,0.603-0.78,0.362-1.212l-1.909-3.438
	l-0.002-0.005l-0.008-0.013c-0.232-0.405-0.414-1.139-0.407-1.828c-0.002-0.449,0.071-0.88,0.196-1.191
	c0.063-0.157,0.137-0.283,0.211-0.375c0.062-0.08,0.139-0.146,0.227-0.194c0.294-0.158,0.608-0.232,0.925-0.232
	c0.693,0,1.368,0.362,1.717,0.996l1.646,2.961c0.001,0.002,0.003,0.004,0.005,0.008l1.363,2.457
	c0.241,0.434,0.794,0.593,1.233,0.356c0.44-0.236,0.603-0.78,0.362-1.214l-1.372-2.472c-0.151-0.277-0.231-0.588-0.231-0.904
	c0-0.685,0.368-1.349,1.01-1.691c0.294-0.159,0.608-0.232,0.926-0.232c0.694,0.001,1.368,0.362,1.719,0.996l4.932,8.88
	c0.731,1.315,1.112,2.797,1.107,4.302C52.344,45.027,50.135,48.802,46.268,50.877z"/>
</svg>
