<?xml version="1.0" encoding="utf-8"?>
<!-- Generator: Adobe Illustrator 16.0.0, SVG Export Plug-In . SVG Version: 6.00 Build 0)  -->
<!DOCTYPE svg PUBLIC "-//W3C//DTD SVG 1.1//EN" "http://www.w3.org/Graphics/SVG/1.1/DTD/svg11.dtd">
<svg version="1.1" id="Layer_1" xmlns="http://www.w3.org/2000/svg" xmlns:xlink="http://www.w3.org/1999/xlink" x="0px" y="0px"
	 width="50px" height="50px" viewBox="1 -0.5 50 50" enable-background="new 1 -0.5 50 50" xml:space="preserve">
<path fill="#FD3744" d="M31.76,38.214c0.121,0.061,0.24,0.061,0.3,0.061c0.12,0,0.241-0.061,0.36-0.12l5.22-3.148
	c0.177-0.127,0.288-0.327,0.301-0.545c0.001-0.222-0.112-0.427-0.301-0.545l-5.22-3.149c-0.204-0.12-0.456-0.12-0.66,0
	c-0.18,0.121-0.36,0.365-0.36,0.545v6.297C31.399,37.912,31.521,38.094,31.76,38.214z M32.72,32.523l3.301,1.997l-3.301,2V32.523z
	 M18.74,10.664h6.48c0.36,0,0.66-0.302,0.66-0.665c-0.001-0.365-0.295-0.662-0.66-0.667h-6.48c-0.365,0.005-0.658,0.301-0.66,0.667
	C18.08,10.422,18.38,10.664,18.74,10.664z M18.74,15.993h12.721c0.359,0,0.658-0.303,0.658-0.667
	c-0.002-0.364-0.294-0.66-0.658-0.666H18.74c-0.364,0.006-0.658,0.301-0.66,0.666C18.08,15.69,18.38,15.993,18.74,15.993
	L18.74,15.993z M9.5,36.822c1.62,0,2.88-1.331,2.88-2.907c0.007-1.598-1.282-2.897-2.88-2.906c-1.56,0-2.88,1.333-2.88,2.906
	C6.62,35.491,7.94,36.822,9.5,36.822z M9.5,32.281c0.9,0,1.62,0.727,1.62,1.634c0,0.908-0.72,1.635-1.62,1.635
	c-0.895,0-1.621-0.727-1.62-1.621c0-0.004,0-0.009,0-0.013C7.94,33.008,8.66,32.281,9.5,32.281z M49.399,19.505H37.94V9.877
	c0.005-0.179-0.059-0.353-0.181-0.485L30.32,2.066c-0.13-0.122-0.303-0.187-0.48-0.182H13.4c-0.365,0.005-0.659,0.301-0.661,0.666
	v24.704H2.66C2.295,27.26,2.002,27.556,2,27.921v18.527c0,0.364,0.3,0.668,0.66,0.668h22.5c0.359,0,0.66-0.304,0.66-0.668V44.27
	h23.52c0.359,0,0.66-0.303,0.66-0.667V20.171C50,19.807,49.76,19.504,49.399,19.505L49.399,19.505z M30.32,3.943l5.52,5.45h-5.52
	V3.943z M14.06,3.216H29v6.782c0,0.363,0.301,0.665,0.66,0.665h6.959v8.84H18.74c-0.365,0.005-0.658,0.302-0.66,0.667v6.842
	c0,0.061,0,0.183,0.06,0.242h-4.08V3.216z M24.56,45.845H3.32v-1.03l4.56-4.603l2.34,2.361c0.24,0.243,0.66,0.243,0.9,0l7.439-7.508
	l6,6.055V45.845L24.56,45.845z M24.56,39.243l-5.52-5.57c-0.251-0.242-0.649-0.242-0.9,0l-7.44,7.509L8.36,38.82
	c-0.251-0.243-0.649-0.243-0.9,0l-4.08,4.116V28.589h21.18v10.656V39.243z M48.74,42.997H25.82V27.921
	c-0.002-0.365-0.296-0.661-0.66-0.666h-5.82c0-0.06,0.061-0.182,0.061-0.242v-1.573h29.34V42.997z M48.74,24.167H19.4v-3.331h29.34
	V24.167z"/>
</svg>
