<?xml version="1.0" encoding="utf-8"?>
<!-- Generator: Adobe Illustrator 16.0.0, SVG Export Plug-In . SVG Version: 6.00 Build 0)  -->
<!DOCTYPE svg PUBLIC "-//W3C//DTD SVG 1.1//EN" "http://www.w3.org/Graphics/SVG/1.1/DTD/svg11.dtd">
<svg version="1.1" id="Layer_1" xmlns="http://www.w3.org/2000/svg" xmlns:xlink="http://www.w3.org/1999/xlink" x="0px" y="0px"
	 width="50px" height="50px" viewBox="0 0 50 50" enable-background="new 0 0 50 50" xml:space="preserve">
<g>
	<path fill="#EF3F49" stroke="#EF3F49" stroke-width="0.5" d="M36.599,44.713c-10.946,6.359-24.997,2.68-31.385-8.218
		c-3.949-6.734-4.172-15.021-0.592-21.957l-3.305,0.716c-0.334,0.097-0.684-0.095-0.781-0.43c-0.097-0.334,0.096-0.684,0.43-0.781
		c0.023-0.006,0.046-0.012,0.07-0.016l4.932-1.125c0.166-0.037,0.339-0.006,0.482,0.086c0.138,0.09,0.239,0.228,0.281,0.387
		l1.123,4.919c0.059,0.326-0.151,0.641-0.475,0.716H7.243c-0.294,0.001-0.551-0.2-0.618-0.487l-0.763-3.334
		c-5.451,10.509-1.316,23.428,9.237,28.855c6.568,3.376,14.406,3.161,20.78-0.57L36.599,44.713L36.599,44.713z M43.997,37.342
		c-0.048,0.009-0.096,0.009-0.144,0c-0.294,0.002-0.548-0.203-0.609-0.488l-1.131-4.922c-0.103-0.334,0.084-0.688,0.418-0.79
		c0.335-0.104,0.688,0.085,0.79,0.418c0.009,0.03,0.018,0.062,0.022,0.092l0.792,3.428c5.402-10.55,1.226-23.481-9.332-28.883
		c-6.581-3.366-14.429-3.113-20.78,0.668l-0.72-1.236C24.181-0.838,38.241,2.731,44.713,13.6c4.024,6.76,4.296,15.112,0.717,22.119
		L48.643,35c0.339-0.077,0.675,0.136,0.755,0.474c0.07,0.335-0.139,0.666-0.474,0.741L43.997,37.342L43.997,37.342z"/>
	<path fill="#EF3F49" stroke="#EF3F49" stroke-width="0.2" d="M24.164,14.836c-0.755,0.033-1.501,0.168-2.219,0.404
		c-0.599,0.198-1.153,0.509-1.635,0.915c-0.407,0.349-0.719,0.792-0.909,1.292c-0.19,0.521-0.286,1.072-0.282,1.626
		c-0.019,0.557,0.089,1.111,0.317,1.62c0.2,0.416,0.491,0.78,0.853,1.069c0.394,0.302,0.834,0.537,1.305,0.697
		c0.544,0.192,1.098,0.354,1.662,0.481l0.902,0.195L24.164,14.836z M24.692,23.784l-1.55-0.334
		c-0.583-0.128-1.155-0.289-1.719-0.482c-0.523-0.179-1.014-0.442-1.452-0.78c-0.428-0.334-0.775-0.762-1.013-1.251
		c-0.258-0.582-0.378-1.214-0.354-1.85c-0.004-0.619,0.104-1.233,0.317-1.814c0.216-0.578,0.574-1.094,1.042-1.5
		c0.532-0.45,1.148-0.792,1.812-1.013c0.858-0.279,1.753-0.43,2.656-0.446h0.275L24.692,23.784z M25.649,25.181v9.073
		c0.712-0.011,1.42-0.098,2.113-0.257c0.683-0.153,1.331-0.428,1.917-0.81c0.538-0.355,0.981-0.834,1.296-1.397
		c0.339-0.645,0.504-1.367,0.479-2.093c0.036-0.96-0.325-1.893-1.001-2.575c-0.941-0.806-2.074-1.354-3.289-1.591l-1.514-0.35
		H25.649z M25.396,34.778h-0.26V24.512l2.154,0.523c1.306,0.263,2.518,0.858,3.523,1.73c0.785,0.776,1.21,1.843,1.176,2.945
		c0.025,0.814-0.162,1.62-0.541,2.339c-0.354,0.632-0.855,1.169-1.458,1.569c-0.646,0.419-1.363,0.717-2.116,0.881
		c-0.816,0.186-1.653,0.277-2.491,0.271L25.396,34.778z M24.692,37.989h0.43v-2.604h0.26c0.9-0.02,1.794-0.131,2.67-0.335
		c0.823-0.18,1.606-0.509,2.312-0.969c0.671-0.442,1.228-1.035,1.626-1.732c0.433-0.814,0.64-1.726,0.606-2.645
		c0.003-0.562-0.076-1.121-0.232-1.662c-0.162-0.515-0.431-0.991-0.789-1.396c-0.431-0.482-0.942-0.882-1.514-1.186
		c-0.754-0.397-1.556-0.693-2.389-0.879l-2.536-0.615v-9.68h0.268c1.519-0.03,3.005,0.444,4.227,1.347
		c1.028,0.831,1.626,2.199,1.781,4.077h0.614c-0.121-2.032-0.747-3.532-1.868-4.461c-1.378-1.049-3.073-1.593-4.804-1.542h-0.261
		v-1.445h-0.43v1.445H24.41c-1.245-0.011-2.477,0.246-3.614,0.753c-0.747,0.362-1.402,0.89-1.916,1.543
		c-0.389,0.502-0.654,1.087-0.776,1.71c-0.085,0.46-0.135,0.927-0.147,1.395c-0.026,0.741,0.124,1.478,0.437,2.15
		c0.273,0.546,0.668,1.023,1.155,1.396c0.498,0.373,1.049,0.67,1.634,0.88c0.61,0.22,1.235,0.399,1.867,0.537l1.613,0.377v10.344
		h-0.282c-2.154-0.125-3.797-0.781-4.867-1.954c-1.063-1.221-1.639-2.791-1.614-4.411h-0.612c-0.002,0.994,0.174,1.982,0.521,2.917
		c0.304,0.81,0.785,1.541,1.409,2.143c0.641,0.582,1.399,1.023,2.226,1.292c0.956,0.312,1.943,0.512,2.946,0.594h0.239
		L24.692,37.989L24.692,37.989z M25.649,38.513h-1.493v-2.639c-0.958-0.096-1.904-0.298-2.819-0.601
		c-0.895-0.289-1.719-0.765-2.416-1.395c-0.688-0.652-1.223-1.448-1.564-2.332c-0.396-1.079-0.584-2.223-0.557-3.371v-0.26h1.67
		v0.267c-0.076,1.57,0.45,3.11,1.472,4.306c1.131,1.108,2.644,1.741,4.227,1.766v-9.408l-1.205-0.28
		c-0.655-0.144-1.301-0.33-1.931-0.559c-0.643-0.232-1.246-0.562-1.789-0.977c-0.548-0.417-0.994-0.954-1.304-1.57
		c-0.35-0.746-0.519-1.564-0.492-2.388c0.014-0.487,0.065-0.972,0.155-1.451c0.136-0.704,0.435-1.366,0.874-1.934
		c0.566-0.719,1.288-1.299,2.113-1.695c1.126-0.516,2.349-0.79,3.587-0.804v-1.465h1.471v1.458c1.764-0.006,3.479,0.576,4.875,1.654
		c1.29,1.077,1.986,2.793,2.071,5.117v0.287h-1.654v-0.245c-0.135-1.849-0.677-3.182-1.629-3.944
		c-1.061-0.788-2.343-1.218-3.663-1.228v8.718l2.113,0.516c0.883,0.196,1.736,0.507,2.537,0.928c0.638,0.332,1.21,0.775,1.689,1.304
		c0.4,0.479,0.694,1.031,0.86,1.627c0.171,0.589,0.255,1.196,0.253,1.809c0.025,1.013-0.217,2.016-0.703,2.904
		c-0.437,0.762-1.044,1.411-1.777,1.898c-0.754,0.494-1.595,0.851-2.479,1.049c-0.826,0.19-1.672,0.305-2.521,0.341L25.649,38.513z"
		/>
</g>
</svg>
