<?xml version="1.0" encoding="utf-8"?>
<!-- Generator: Adobe Illustrator 16.0.0, SVG Export Plug-In . SVG Version: 6.00 Build 0)  -->
<!DOCTYPE svg PUBLIC "-//W3C//DTD SVG 1.1//EN" "http://www.w3.org/Graphics/SVG/1.1/DTD/svg11.dtd">
<svg version="1.1" id="Layer_1" xmlns="http://www.w3.org/2000/svg" xmlns:xlink="http://www.w3.org/1999/xlink" x="0px" y="0px"
	 width="50px" height="50px" viewBox="15 0.5 50 50" enable-background="new 15 0.5 50 50" xml:space="preserve">
<g>
	<path fill="#FD3744" stroke="#FD3744" stroke-width="0.5" d="M51.376,44.794c-10.777,6.263-24.614,2.639-30.904-8.092
		c-3.888-6.631-4.108-14.791-0.583-21.62l-3.254,0.706c-0.329,0.095-0.673-0.094-0.769-0.423c-0.095-0.33,0.094-0.673,0.423-0.769
		c0.023-0.006,0.046-0.012,0.069-0.016l4.856-1.108c0.163-0.036,0.334-0.006,0.475,0.085c0.136,0.088,0.235,0.224,0.277,0.38
		l1.105,4.844c0.058,0.321-0.149,0.63-0.468,0.705H22.47c-0.289,0.001-0.542-0.197-0.608-0.479l-0.751-3.283
		c-5.367,10.347-1.296,23.069,9.095,28.413c6.468,3.324,14.186,3.112,20.46-0.562L51.376,44.794L51.376,44.794z M58.661,37.536
		c-0.047,0.009-0.095,0.009-0.142,0c-0.289,0.002-0.54-0.199-0.602-0.481l-1.111-4.846c-0.103-0.329,0.082-0.677,0.412-0.777
		c0.328-0.103,0.676,0.083,0.777,0.41c0.009,0.031,0.017,0.061,0.021,0.092l0.781,3.373c5.319-10.387,1.207-23.12-9.19-28.438
		C43.129,3.554,35.4,3.803,29.147,7.526l-0.709-1.217c10.709-6.367,24.556-2.853,30.927,7.849c3.964,6.656,4.23,14.881,0.706,21.781
		l3.164-0.708c0.333-0.076,0.665,0.133,0.743,0.467c0.069,0.329-0.138,0.656-0.467,0.729L58.661,37.536L58.661,37.536z"/>
	<path fill="#FD3744" stroke="#FD3744" stroke-width="0.2" d="M39.131,15.376c-0.743,0.032-1.479,0.166-2.185,0.398
		c-0.59,0.195-1.135,0.501-1.61,0.9c-0.4,0.344-0.708,0.78-0.895,1.272c-0.187,0.512-0.281,1.055-0.277,1.601
		c-0.019,0.548,0.088,1.094,0.312,1.594c0.197,0.409,0.484,0.769,0.839,1.053c0.388,0.297,0.821,0.529,1.285,0.687
		c0.535,0.189,1.082,0.348,1.636,0.474l0.888,0.192L39.131,15.376z M39.651,24.187l-1.526-0.33
		c-0.574-0.126-1.137-0.284-1.692-0.475c-0.515-0.176-0.998-0.436-1.429-0.769c-0.422-0.329-0.763-0.75-0.998-1.231
		c-0.253-0.573-0.372-1.195-0.348-1.822c-0.004-0.609,0.102-1.214,0.313-1.786c0.213-0.569,0.565-1.077,1.026-1.478
		c0.524-0.443,1.13-0.78,1.784-0.998c0.845-0.275,1.727-0.423,2.615-0.439h0.271L39.651,24.187z M40.594,25.562v8.934
		c0.701-0.011,1.399-0.097,2.082-0.253c0.671-0.152,1.311-0.421,1.888-0.798c0.528-0.35,0.967-0.822,1.275-1.375
		c0.333-0.637,0.496-1.347,0.472-2.062c0.036-0.945-0.32-1.863-0.985-2.536c-0.927-0.793-2.042-1.332-3.239-1.567l-1.489-0.344
		H40.594z M40.344,35.012h-0.255v-10.11l2.121,0.517c1.285,0.258,2.479,0.845,3.47,1.703c0.772,0.766,1.19,1.815,1.158,2.901
		c0.023,0.802-0.16,1.596-0.534,2.303c-0.35,0.623-0.841,1.151-1.436,1.546c-0.637,0.412-1.342,0.706-2.082,0.867
		c-0.806,0.182-1.629,0.273-2.454,0.267L40.344,35.012z M39.651,38.174h0.423v-2.564h0.256c0.886-0.021,1.766-0.13,2.63-0.329
		c0.81-0.177,1.58-0.502,2.274-0.954c0.661-0.438,1.21-1.02,1.603-1.707c0.425-0.802,0.63-1.698,0.597-2.604
		c0.003-0.554-0.076-1.104-0.23-1.637c-0.157-0.507-0.422-0.977-0.774-1.374c-0.426-0.475-0.93-0.869-1.492-1.168
		c-0.741-0.391-1.532-0.682-2.351-0.866l-2.498-0.606v-9.531h0.264c1.496-0.029,2.959,0.437,4.161,1.326
		c1.013,0.818,1.604,2.166,1.756,4.014h0.604c-0.119-2-0.735-3.478-1.839-4.393c-1.356-1.033-3.026-1.568-4.731-1.518h-0.257v-1.422
		h-0.423v1.422h-0.249c-1.226-0.011-2.439,0.243-3.559,0.742c-0.736,0.356-1.381,0.876-1.887,1.519
		c-0.383,0.494-0.645,1.071-0.764,1.684c-0.084,0.454-0.133,0.913-0.146,1.374c-0.025,0.73,0.122,1.456,0.43,2.118
		c0.27,0.538,0.658,1.008,1.138,1.375c0.49,0.368,1.033,0.66,1.609,0.866c0.601,0.217,1.216,0.394,1.838,0.529l1.588,0.371v10.187
		h-0.278c-2.121-0.123-3.739-0.771-4.792-1.925c-1.047-1.202-1.613-2.749-1.589-4.344h-0.603c-0.002,0.979,0.172,1.952,0.513,2.872
		c0.299,0.798,0.773,1.517,1.388,2.11c0.631,0.573,1.378,1.008,2.191,1.272c0.941,0.307,1.914,0.504,2.901,0.585h0.235
		L39.651,38.174L39.651,38.174z M40.594,38.689h-1.47v-2.599c-0.944-0.094-1.875-0.293-2.775-0.591
		c-0.881-0.285-1.692-0.753-2.378-1.373c-0.678-0.644-1.205-1.428-1.541-2.297c-0.39-1.063-0.576-2.188-0.548-3.32v-0.255h1.645
		v0.262c-0.075,1.547,0.443,3.063,1.45,4.241c1.113,1.091,2.603,1.714,4.162,1.738v-9.265l-1.187-0.275
		c-0.645-0.141-1.28-0.324-1.901-0.55c-0.633-0.229-1.227-0.553-1.762-0.962c-0.54-0.411-0.979-0.939-1.284-1.546
		c-0.345-0.734-0.511-1.54-0.485-2.351c0.013-0.479,0.064-0.958,0.152-1.429c0.134-0.693,0.428-1.345,0.86-1.904
		c0.557-0.708,1.269-1.279,2.081-1.669c1.109-0.508,2.313-0.777,3.533-0.792v-1.442h1.448v1.436
		c1.737-0.005,3.428,0.567,4.802,1.628c1.269,1.06,1.955,2.75,2.039,5.039v0.282h-1.63v-0.241c-0.133-1.821-0.666-3.133-1.604-3.884
		c-1.044-0.775-2.307-1.199-3.607-1.208v8.584l2.082,0.508c0.869,0.193,1.708,0.5,2.497,0.914c0.629,0.327,1.192,0.762,1.665,1.285
		c0.394,0.47,0.683,1.015,0.847,1.602c0.167,0.58,0.251,1.179,0.249,1.781c0.025,0.996-0.214,1.984-0.693,2.858
		c-0.43,0.75-1.028,1.391-1.748,1.87c-0.743,0.486-1.571,0.838-2.442,1.033c-0.813,0.188-1.647,0.3-2.482,0.336L40.594,38.689z"/>
</g>
</svg>
