<?xml version="1.0" encoding="utf-8"?>
<!-- Generator: Adobe Illustrator 16.0.0, SVG Export Plug-In . SVG Version: 6.00 Build 0)  -->
<!DOCTYPE svg PUBLIC "-//W3C//DTD SVG 1.1//EN" "http://www.w3.org/Graphics/SVG/1.1/DTD/svg11.dtd">
<svg version="1.1" id="Layer_1" xmlns="http://www.w3.org/2000/svg" xmlns:xlink="http://www.w3.org/1999/xlink" x="0px" y="0px"
	 width="50px" height="50px" viewBox="13.5 7.5 50 50" enable-background="new 13.5 7.5 50 50" xml:space="preserve">
<g>
	<path fill="#FD3744" d="M40.935,29.302c-0.174-0.31-0.504-0.501-0.859-0.499h-0.97v-4.716c-0.005-1.854-1.506-3.354-3.359-3.359
		h-1.401c-0.238,0-0.429,0.193-0.429,0.43c0,0.237,0.192,0.429,0.429,0.429h1.401c1.381,0,2.5,1.119,2.5,2.5v4.716h-0.903
		c-0.545-0.003-0.99,0.437-0.993,0.982c-0.001,0.177,0.045,0.352,0.134,0.504l1.366,2.362c0.176,0.309,0.504,0.5,0.859,0.498
		c0.355-0.001,0.681-0.191,0.859-0.498l1.366-2.372C41.103,29.976,41.103,29.606,40.935,29.302L40.935,29.302z M40.188,29.86
		l-1.366,2.363c-0.069,0.111-0.163,0.12-0.231,0l-1.357-2.363c-0.026-0.042-0.026-0.095,0-0.138c0.022-0.039,0.065-0.063,0.111-0.06
		h2.731c0.044,0.003,0.086,0.025,0.112,0.06C40.213,29.765,40.213,29.818,40.188,29.86z M56.934,34.063l-1.365-2.361
		c-0.307-0.474-0.938-0.611-1.413-0.305c-0.122,0.078-0.227,0.183-0.305,0.305l-1.357,2.361c-0.275,0.478-0.111,1.087,0.366,1.362
		c0.149,0.086,0.319,0.132,0.493,0.133h0.858v4.708c0,1.386-1.123,2.508-2.508,2.508l0,0h-1.35c-0.237,0-0.429,0.193-0.429,0.43
		s0.191,0.43,0.429,0.43h1.392c1.858-0.005,3.363-1.51,3.369-3.367v-4.742h0.962c0.549-0.003,0.994-0.45,0.991-1
		c0-0.174-0.047-0.345-0.134-0.493V34.063z M56.195,34.632c-0.024,0.043-0.071,0.068-0.119,0.068h-2.724
		c-0.044,0.008-0.089-0.005-0.12-0.034c-0.022-0.043-0.022-0.096,0-0.139l1.365-2.361c0.027-0.04,0.072-0.063,0.121-0.061
		c0.044,0.001,0.085,0.023,0.111,0.061l1.365,2.361c0.019,0.045,0.019,0.095,0,0.139V34.632z M32.017,12.224H14.836
		c-0.237,0-0.43,0.192-0.43,0.43v17.181c0.004,0.235,0.194,0.425,0.43,0.43h17.181c0.237,0,0.43-0.192,0.43-0.43V12.654
		C32.447,12.417,32.253,12.224,32.017,12.224L32.017,12.224z M16.157,13.725h14.508v1.419H16.157V13.725z M16.157,28.732V16.004
		h14.508v12.729H16.157z M62.032,12.224H44.852c-0.238,0-0.43,0.192-0.43,0.43l0,0v17.181c0.004,0.235,0.193,0.425,0.43,0.43h17.181
		c0.238,0,0.431-0.192,0.431-0.43V12.654C62.463,12.417,62.27,12.224,62.032,12.224z M46.173,13.725H60.68v1.419H46.173V13.725z
		 M46.173,28.732V16.004H60.68v12.729H46.173z M47.275,34.736H30.094c-0.238,0-0.429,0.192-0.429,0.429l0,0v17.182
		c0.003,0.235,0.193,0.424,0.429,0.429h17.182c0.236,0,0.429-0.191,0.429-0.429V35.165C47.704,34.929,47.512,34.736,47.275,34.736
		L47.275,34.736z M31.416,36.236h14.506v1.42H31.416V36.236z M31.416,51.244V38.515h14.506v12.729H31.416z"/>
</g>
</svg>
