<?xml version="1.0" encoding="utf-8"?>
<!-- Generator: Adobe Illustrator 16.0.0, SVG Export Plug-In . SVG Version: 6.00 Build 0)  -->
<!DOCTYPE svg PUBLIC "-//W3C//DTD SVG 1.1//EN" "http://www.w3.org/Graphics/SVG/1.1/DTD/svg11.dtd">
<svg version="1.1" id="Layer_1" xmlns="http://www.w3.org/2000/svg" xmlns:xlink="http://www.w3.org/1999/xlink" x="0px" y="0px"
	 width="50px" height="50px" viewBox="15 1 50 50" enable-background="new 15 1 50 50" xml:space="preserve">
<path fill="#FD3744" d="M60.882,10.737c0-1.633-1.326-2.959-2.959-2.959H41.187V3.185c0-0.561-0.46-1.021-1.021-1.021
	c-0.561,0-1.021,0.459-1.021,1.021v4.542H22.409c-1.633,0-2.959,1.327-2.959,2.959v23.931c0,1.633,1.327,2.96,2.959,2.96h9.337
	l-5.306,9.95c-0.255,0.51-0.102,1.122,0.408,1.377c0.153,0.103,0.306,0.103,0.459,0.103c0.356,0,0.714-0.204,0.918-0.562
	l5.817-10.817h5.102v11.276c0,0.562,0.46,1.021,1.021,1.021c0.562,0,1.021-0.459,1.021-1.021V37.628h5.103l5.816,10.817
	c0.205,0.357,0.562,0.562,0.919,0.562c0.152,0,0.307-0.052,0.459-0.103c0.51-0.255,0.663-0.867,0.408-1.377l-5.307-9.899h9.338
	c1.633,0,2.959-1.326,2.959-2.96V10.737z M58.841,34.668c0,0.51-0.407,0.919-0.918,0.919H22.409c-0.51,0-0.918-0.409-0.918-0.919
	V10.737c0-0.51,0.408-0.918,0.918-0.918h35.514c0.511,0,0.918,0.408,0.918,0.918V34.668z"/>
</svg>
