<?xml version="1.0" encoding="utf-8"?>
<!-- Generator: Adobe Illustrator 16.0.0, SVG Export Plug-In . SVG Version: 6.00 Build 0)  -->
<!DOCTYPE svg PUBLIC "-//W3C//DTD SVG 1.1//EN" "http://www.w3.org/Graphics/SVG/1.1/DTD/svg11.dtd">
<svg version="1.1" id="Layer_1" xmlns="http://www.w3.org/2000/svg" xmlns:xlink="http://www.w3.org/1999/xlink" x="0px" y="0px"
	 width="50px" height="50px" viewBox="0 0 50 50" enable-background="new 0 0 50 50" xml:space="preserve">
<path fill="#EF3F49" d="M46.601,8.988c0-1.703-1.383-3.086-3.085-3.086H26.064V1.114c0-0.585-0.479-1.064-1.064-1.064
	c-0.585,0-1.064,0.479-1.064,1.064V5.85H6.485c-1.703,0-3.086,1.383-3.086,3.086v24.951c0,1.705,1.383,3.086,3.086,3.086h9.736
	l-5.533,10.375c-0.266,0.533-0.106,1.17,0.425,1.436c0.16,0.109,0.319,0.109,0.479,0.109c0.372,0,0.744-0.215,0.958-0.586
	l6.065-11.279h5.32v11.756c0,0.588,0.479,1.064,1.064,1.064c0.585,0,1.064-0.477,1.064-1.064V37.027h5.32l6.065,11.279
	c0.213,0.371,0.585,0.586,0.958,0.586c0.159,0,0.319-0.055,0.478-0.109c0.532-0.266,0.692-0.902,0.427-1.436l-5.534-10.32h9.737
	c1.702,0,3.085-1.385,3.085-3.086V8.988z M44.473,33.941c0,0.531-0.425,0.957-0.957,0.957H6.485c-0.532,0-0.958-0.426-0.958-0.957
	V8.988c0-0.532,0.426-0.958,0.958-0.958h37.03c0.532,0,0.957,0.426,0.957,0.958V33.941z"/>
</svg>
