<?xml version="1.0" encoding="utf-8"?>
<!-- Generator: Adobe Illustrator 16.0.0, SVG Export Plug-In . SVG Version: 6.00 Build 0)  -->
<!DOCTYPE svg PUBLIC "-//W3C//DTD SVG 1.1//EN" "http://www.w3.org/Graphics/SVG/1.1/DTD/svg11.dtd">
<svg version="1.1" id="Layer_1" xmlns="http://www.w3.org/2000/svg" xmlns:xlink="http://www.w3.org/1999/xlink" x="0px" y="0px"
	 width="215px" height="41px" viewBox="0 0 215 41" enable-background="new 0 0 215 41" xml:space="preserve">
<title>cognitives-logo</title>
<path fill="#2E3848" d="M60.15,11.41c1.92-0.03,3.776,0.685,5.18,1.993c0.088,0.075,0.137,0.184,0.137,0.3
	c0,0.114-0.05,0.223-0.136,0.298l-0.964,0.966c-0.15,0.193-0.342,0.193-0.535,0c-1.025-0.905-2.337-1.418-3.704-1.447
	c-3.01,0.072-5.392,2.57-5.325,5.58c-0.02,1.45,0.535,2.85,1.547,3.89c1.012,1.039,2.396,1.634,3.847,1.652
	c1.355-0.021,2.66-0.522,3.68-1.414c0.148-0.131,0.37-0.131,0.516,0l0.965,0.965c0.16,0.16,0.16,0.42,0,0.58
	c-1.392,1.35-3.26,2.095-5.2,2.072c-4.262,0-7.718-3.455-7.718-7.719c0-4.262,3.456-7.717,7.718-7.717h-0.005H60.15z M79.222,11.41
	c3.125-0.013,5.95,1.86,7.155,4.74c1.205,2.884,0.553,6.209-1.652,8.424c-2.204,2.214-5.526,2.88-8.414,1.688
	c-2.887-1.193-4.77-4.01-4.77-7.134c-0.008-2.043,0.8-4.004,2.24-5.452C75.221,12.228,77.181,11.413,79.222,11.41L79.222,11.41z
	 M79.222,24.68c2.256,0.01,4.295-1.343,5.163-3.425c0.867-2.082,0.393-4.482-1.202-6.077c-1.596-1.595-3.996-2.07-6.078-1.202
	c-2.082,0.868-3.435,2.906-3.425,5.162c0.008,3.057,2.484,5.536,5.542,5.547V24.68L79.222,24.68z M100.885,11.41
	c1.926-0.004,3.786,0.706,5.22,1.993c0.08,0.078,0.126,0.186,0.126,0.3c0,0.112-0.045,0.22-0.126,0.298
	c-0.323,0.343-0.642,0.667-0.965,1.01c-0.174,0.192-0.343,0.173-0.555,0c-1.004-0.896-2.292-1.41-3.637-1.448
	c-2.937,0.173-5.23,2.605-5.23,5.547c0,2.94,2.293,5.373,5.23,5.546c1.117-0.006,2.22-0.26,3.227-0.743v-2.41h-2.1
	c-0.104,0.002-0.206-0.036-0.283-0.11c-0.076-0.072-0.12-0.172-0.12-0.275V19.89c-0.003-0.108,0.038-0.212,0.115-0.29
	c0.076-0.076,0.18-0.117,0.29-0.115h3.897c0.217,0.008,0.388,0.188,0.386,0.405v5.18c-0.013,0.133-0.075,0.255-0.174,0.343
	c-1.616,0.925-3.444,1.412-5.306,1.414c-4.262,0-7.718-3.456-7.718-7.718c0-4.263,3.456-7.72,7.718-7.72L100.885,11.41
	L100.885,11.41z M114.005,11.816c0.009-0.217,0.188-0.39,0.405-0.386h0.535l9.291,10.747v-10.13c0-0.223,0.18-0.405,0.404-0.405
	h1.371c0.219,0.008,0.396,0.185,0.404,0.405v14.393c-0.008,0.22-0.188,0.392-0.404,0.389h-0.555l-9.29-11.046v10.424
	c0,0.226-0.183,0.405-0.403,0.405h-1.352c-0.221-0.008-0.396-0.186-0.405-0.405v-14.39H114.005z M134.875,12.033
	c0.01-0.22,0.186-0.398,0.407-0.405h1.413c0.22,0.007,0.396,0.184,0.404,0.405v14.17c-0.008,0.222-0.186,0.4-0.404,0.406h-1.413
	c-0.22-0.008-0.398-0.186-0.406-0.405L134.875,12.033L134.875,12.033z M147.585,13.639H144.1c-0.225,0-0.406-0.182-0.406-0.406v-1.2
	c0-0.225,0.182-0.406,0.406-0.406h9.201c0.225,0,0.405,0.18,0.405,0.405v1.2c0,0.225-0.181,0.406-0.405,0.406h-3.486v12.54
	c-0.008,0.221-0.186,0.398-0.404,0.406h-1.414c-0.221-0.008-0.396-0.186-0.405-0.406L147.585,13.639L147.585,13.639z
	 M160.301,12.032c0.01-0.22,0.186-0.398,0.406-0.405h1.414c0.22,0.007,0.396,0.184,0.404,0.405v14.17
	c-0.008,0.222-0.186,0.399-0.404,0.407h-1.414c-0.221-0.008-0.396-0.187-0.404-0.406v-14.17L160.301,12.032z M168.971,12.182
	c-0.066-0.122-0.06-0.27,0.014-0.386c0.076-0.116,0.211-0.18,0.349-0.17h1.521c0.154,0.007,0.295,0.098,0.361,0.237l4.708,10.612
	h0.125l4.708-10.612c0.063-0.143,0.205-0.236,0.362-0.236h1.521c0.137-0.012,0.271,0.053,0.346,0.17
	c0.076,0.115,0.082,0.263,0.017,0.384l-6.56,14.409c-0.064,0.141-0.205,0.233-0.359,0.237h-0.213
	c-0.154-0.011-0.292-0.101-0.362-0.237L168.971,12.182L168.971,12.182z M189.456,12.032c0-0.224,0.181-0.405,0.405-0.405h8.564
	c0.225,0,0.406,0.18,0.406,0.405v1.2c0,0.225-0.184,0.406-0.406,0.406h-6.753v4.364h5.718c0.219,0.008,0.396,0.185,0.402,0.406v1.2
	c0,0.224-0.18,0.406-0.404,0.406h-5.729v4.602h6.752c0.224,0,0.405,0.18,0.405,0.405V26.2c0,0.223-0.181,0.405-0.405,0.405h-8.552
	c-0.226,0-0.405-0.184-0.405-0.405V12.033L189.456,12.032z M205.383,24.448c0.193-0.28,0.362-0.601,0.555-0.88
	c0.063-0.131,0.182-0.228,0.322-0.26c0.141-0.033,0.29,0,0.405,0.086c0.13,0.105,1.774,1.477,3.425,1.477
	c1.477,0,2.41-0.896,2.41-1.992c0-1.281-1.113-2.097-3.23-2.975c-2.117-0.878-3.896-2.055-3.896-4.54c0-1.668,1.283-3.96,4.689-3.96
	c1.414,0.026,2.789,0.465,3.959,1.265c0.117,0.076,0.197,0.198,0.224,0.336c0.024,0.138-0.011,0.28-0.095,0.392l-0.528,0.83
	c-0.054,0.143-0.172,0.253-0.32,0.295c-0.146,0.042-0.306,0.01-0.427-0.083c-0.148-0.087-1.648-1.07-2.895-1.07
	c-1.801,0-2.414,1.133-2.414,1.928c0,1.22,0.967,1.968,2.722,2.697c2.483,1.008,4.603,2.185,4.603,4.794
	c0,2.228-1.992,4.046-4.775,4.046c-1.69,0.016-3.326-0.587-4.602-1.693c-0.123-0.063-0.212-0.18-0.234-0.313
	c-0.026-0.138,0.013-0.276,0.104-0.382V24.448z"/>
<path fill="#53E8AD" d="M34.925,9.573L18.652,0.186c-0.407-0.235-0.908-0.235-1.315,0L1.024,9.573
	c-0.406,0.234-0.656,0.666-0.658,1.134V29.52c0.002,0.472,0.252,0.9,0.658,1.138l16.29,9.413c0.407,0.236,0.91,0.236,1.316,0
	l16.295-9.408c0.406-0.232,0.656-0.665,0.658-1.135V10.713C35.583,10.243,35.333,9.808,34.925,9.573z M17.972,2.823l14.68,8.474
	l-5.19,3.097c-0.102-0.125-0.225-0.23-0.364-0.312l-8.446-4.89c-0.407-0.234-0.908-0.234-1.315,0l-8.49,4.896
	c-0.146,0.085-0.273,0.196-0.376,0.33l-5.285-3.053L17.972,2.823L17.972,2.823z M2.998,28.76V11.69l5.28,3.052
	c-0.062,0.155-0.095,0.32-0.096,0.488v9.778c0.002,0.471,0.252,0.9,0.658,1.135l8.474,4.9c0.135,0.078,0.283,0.13,0.437,0.154v6.086
	L3,28.76H2.998z M18.131,37.32v-6.114c0.184-0.019,0.362-0.074,0.522-0.165l8.452-4.895c0.56-0.391,0.73-1.147,0.386-1.739
	c-0.344-0.593-1.084-0.822-1.702-0.528l-7.81,4.537l-7.16-4.17V15.99l7.154-4.135l7.81,4.538c0.488,0.29,1.107,0.232,1.533-0.142
	c0.426-0.375,0.563-0.98,0.34-1.502l5.29-3.16V28.76L18.131,37.32L18.131,37.32z"/>
</svg>
