<?xml version="1.0" encoding="utf-8"?>
<!-- Generator: Adobe Illustrator 16.0.0, SVG Export Plug-In . SVG Version: 6.00 Build 0)  -->
<!DOCTYPE svg PUBLIC "-//W3C//DTD SVG 1.1//EN" "http://www.w3.org/Graphics/SVG/1.1/DTD/svg11.dtd">
<svg version="1.1" id="Layer_1" xmlns="http://www.w3.org/2000/svg" xmlns:xlink="http://www.w3.org/1999/xlink" x="0px" y="0px"
	 width="40px" height="40px" viewBox="0 0 40 40" enable-background="new 0 0 40 40" xml:space="preserve">
<title>cognitives-logo</title>
<path fill="#53E8AD" d="M37.058,9.512L20.874,0.175c-0.404-0.233-0.903-0.233-1.307,0L3.342,9.512
	c-0.404,0.232-0.652,0.662-0.654,1.127v18.71c0.002,0.471,0.25,0.896,0.654,1.133l16.202,9.36c0.404,0.235,0.905,0.235,1.308,0
	l16.207-9.355c0.403-0.229,0.652-0.661,0.654-1.13V10.645C37.712,10.178,37.463,9.745,37.058,9.512z M20.198,2.798l14.6,8.427
	l-5.162,3.081c-0.101-0.125-0.224-0.229-0.361-0.311l-8.4-4.863c-0.404-0.233-0.903-0.233-1.307,0l-8.444,4.869
	c-0.146,0.084-0.271,0.195-0.374,0.329l-5.256-3.036L20.198,2.798L20.198,2.798z M5.305,28.594V11.617l5.251,3.036
	c-0.062,0.154-0.094,0.318-0.095,0.485v9.725c0.002,0.468,0.25,0.896,0.654,1.129l8.428,4.873c0.134,0.078,0.281,0.13,0.435,0.153
	v6.054L5.307,28.594H5.305z M20.355,37.107v-6.081c0.184-0.019,0.36-0.073,0.52-0.164l8.406-4.868
	c0.557-0.39,0.726-1.141,0.384-1.729c-0.342-0.59-1.078-0.817-1.692-0.525l-7.768,4.513l-7.121-4.147v-8.211l7.115-4.113
	l7.769,4.514c0.484,0.288,1.1,0.23,1.523-0.142c0.425-0.373,0.561-0.975,0.339-1.494l5.261-3.143v17.078L20.355,37.107
	L20.355,37.107z"/>
</svg>
