<?xml version="1.0" encoding="utf-8"?>
<!-- Generator: Adobe Illustrator 16.0.0, SVG Export Plug-In . SVG Version: 6.00 Build 0)  -->
<!DOCTYPE svg PUBLIC "-//W3C//DTD SVG 1.1//EN" "http://www.w3.org/Graphics/SVG/1.1/DTD/svg11.dtd">
<svg version="1.1" id="Layer_1" xmlns="http://www.w3.org/2000/svg" xmlns:xlink="http://www.w3.org/1999/xlink" x="0px" y="0px"
	 width="152px" height="52px" viewBox="0 0 152 52" enable-background="new 0 0 152 52" xml:space="preserve">
<g>
	<g>
		<defs>
			<path id="SVGID_1_" d="M38.002,16.514c7.772,3.906,7.704,11.539,6.412,17.011c1.604-3.18,2.476-6.771,2.407-10.563
				c-0.081-4.467-1.461-8.614-3.779-12.101C41.291,12.917,39.612,14.798,38.002,16.514"/>
		</defs>
		<clipPath id="SVGID_2_">
			<use xlink:href="#SVGID_1_"  overflow="visible"/>
		</clipPath>
		
			<linearGradient id="SVGID_3_" gradientUnits="userSpaceOnUse" x1="-55.3906" y1="-23.5176" x2="-54.3906" y2="-23.5176" gradientTransform="matrix(0 23.1129 -23.5852 0 -512.2072 1292.8102)">
			<stop  offset="0" style="stop-color:#144E8B"/>
			<stop  offset="1" style="stop-color:#0094D9"/>
		</linearGradient>
		<rect x="38.002" y="10.862" clip-path="url(#SVGID_2_)" fill="url(#SVGID_3_)" width="8.888" height="22.664"/>
	</g>
</g>
<g>
	<g>
		<defs>
			<path id="SVGID_4_" d="M0.82,17.326L0.82,17.326c0.98,5.49,5.568,22.627,23.571,11.068c-3.296-5.813-4.377-10.495-4.077-14.259
				C14.978,14.485,8.549,15.488,0.82,17.326"/>
		</defs>
		<clipPath id="SVGID_5_">
			<use xlink:href="#SVGID_4_"  overflow="visible"/>
		</clipPath>
		
			<linearGradient id="SVGID_6_" gradientUnits="userSpaceOnUse" x1="-65.3491" y1="-30.7886" x2="-64.3491" y2="-30.7886" gradientTransform="matrix(-11.8149 19.3692 -19.765 -11.5782 -1358.5454 920.8073)">
			<stop  offset="0" style="stop-color:#204788"/>
			<stop  offset="0.1612" style="stop-color:#204788"/>
			<stop  offset="0.2122" style="stop-color:#1D5091"/>
			<stop  offset="0.5383" style="stop-color:#0E82C3"/>
			<stop  offset="0.7853" style="stop-color:#04A1E2"/>
			<stop  offset="0.9227" style="stop-color:#00ADEE"/>
			<stop  offset="1" style="stop-color:#00ADEE"/>
		</linearGradient>
		<polygon clip-path="url(#SVGID_5_)" fill="url(#SVGID_6_)" points="35.993,20.932 18.186,50.125 -10.782,33.156 7.025,3.963 		"/>
	</g>
</g>
<g>
	<g>
		<defs>
			<path id="SVGID_7_" d="M20.314,14.135c8.263-0.543,13.904,0.475,17.688,2.378c1.61-1.715,3.289-3.596,5.04-5.651
				c-2.933-4.411-7.37-7.765-12.583-9.376C25.849,3.567,20.852,7.371,20.314,14.135"/>
		</defs>
		<clipPath id="SVGID_8_">
			<use xlink:href="#SVGID_7_"  overflow="visible"/>
		</clipPath>
		
			<linearGradient id="SVGID_9_" gradientUnits="userSpaceOnUse" x1="-55.0488" y1="-2.001" x2="-54.0483" y2="-2.001" gradientTransform="matrix(25.397 13.3098 -13.5819 24.8883 1385.4935 782.5668)">
			<stop  offset="0" style="stop-color:#00ADEE"/>
			<stop  offset="0.3447" style="stop-color:#00ADEE"/>
			<stop  offset="0.4536" style="stop-color:#04A2E3"/>
			<stop  offset="0.6455" style="stop-color:#0F85C5"/>
			<stop  offset="0.8962" style="stop-color:#205696"/>
			<stop  offset="1" style="stop-color:#284180"/>
		</linearGradient>
		<polygon clip-path="url(#SVGID_8_)" fill="url(#SVGID_9_)" points="25.369,-7.776 49.419,4.828 37.987,25.775 13.938,13.171 		"/>
	</g>
</g>
<g>
	<g>
		<defs>
			<path id="SVGID_10_" d="M24.391,28.395c2.407,4.248,5.997,9.101,11.095,14.642c3.83-2.263,6.941-5.57,8.928-9.511
				c1.292-5.473,1.36-13.104-6.412-17.011C32.776,22.076,28.271,25.902,24.391,28.395"/>
		</defs>
		<clipPath id="SVGID_11_">
			<use xlink:href="#SVGID_10_"  overflow="visible"/>
		</clipPath>
		
			<linearGradient id="SVGID_12_" gradientUnits="userSpaceOnUse" x1="-80.0625" y1="-17.1172" x2="-79.0625" y2="-17.1172" gradientTransform="matrix(-46.8324 0 0 -45.8944 -3702.6709 -755.8004)">
			<stop  offset="0" style="stop-color:#00ADEE"/>
			<stop  offset="0.1193" style="stop-color:#00ADEE"/>
			<stop  offset="0.2068" style="stop-color:#03A7E8"/>
			<stop  offset="0.3261" style="stop-color:#0A97D6"/>
			<stop  offset="0.463" style="stop-color:#157CBA"/>
			<stop  offset="0.5497" style="stop-color:#1E68A4"/>
			<stop  offset="1" style="stop-color:#1E68A4"/>
		</linearGradient>
		<rect x="24.391" y="16.514" clip-path="url(#SVGID_11_)" fill="url(#SVGID_12_)" width="21.383" height="26.521"/>
	</g>
</g>
<g>
	<g>
		<defs>
			<path id="SVGID_13_" d="M-0.001,23.295v0.146c0,0.114,0.002,0.229,0.004,0.342c0.232,12.67,10.898,22.758,23.827,22.531
				c4.268-0.076,8.247-1.267,11.656-3.279c-5.098-5.541-8.688-10.393-11.095-14.641C6.388,39.953,1.8,22.815,0.82,17.327
				C0.291,19.231,0.005,21.232-0.001,23.295"/>
		</defs>
		<clipPath id="SVGID_14_">
			<use xlink:href="#SVGID_13_"  overflow="visible"/>
		</clipPath>
		
			<linearGradient id="SVGID_15_" gradientUnits="userSpaceOnUse" x1="-61.6289" y1="-0.168" x2="-60.6294" y2="-0.168" gradientTransform="matrix(38.4075 7.4271 -7.5789 37.6382 2364.2932 492.2871)">
			<stop  offset="0" style="stop-color:#274185"/>
			<stop  offset="0.2424" style="stop-color:#274185"/>
			<stop  offset="0.4968" style="stop-color:#1A5499"/>
			<stop  offset="0.9273" style="stop-color:#007DC4"/>
			<stop  offset="1" style="stop-color:#007DC4"/>
		</linearGradient>
		<polygon clip-path="url(#SVGID_14_)" fill="url(#SVGID_15_)" points="1.329,10.721 41.148,18.421 34.156,53.146 -5.663,45.445 		
			"/>
	</g>
</g>
<g>
	<g>
		<defs>
			<path id="SVGID_16_" d="M23.394,0.427c-0.135,0-0.268,0.001-0.402,0.004C12.346,0.619,3.487,7.741,0.82,17.326
				c7.729-1.837,14.158-2.84,19.495-3.19c0.537-6.765,5.534-10.568,10.144-12.649c-2.22-0.686-4.58-1.057-7.026-1.059h-0.039V0.427z
				"/>
		</defs>
		<clipPath id="SVGID_17_">
			<use xlink:href="#SVGID_16_"  overflow="visible"/>
		</clipPath>
		
			<linearGradient id="SVGID_18_" gradientUnits="userSpaceOnUse" x1="-77.5176" y1="24.209" x2="-76.5175" y2="24.209" gradientTransform="matrix(10.438 -12.1903 12.4395 10.2289 515.3848 -1174.0979)">
			<stop  offset="0" style="stop-color:#274185"/>
			<stop  offset="0.2424" style="stop-color:#274185"/>
			<stop  offset="0.4968" style="stop-color:#1A5499"/>
			<stop  offset="0.9273" style="stop-color:#007DC4"/>
			<stop  offset="1" style="stop-color:#007DC4"/>
		</linearGradient>
		<polygon clip-path="url(#SVGID_17_)" fill="url(#SVGID_18_)" points="-7.671,10.344 13.066,-13.875 38.95,7.409 18.213,31.627 		
			"/>
	</g>
</g>
<g>
	<defs>
		<rect id="SVGID_19_" x="-0.001" y="0.427" width="143.69" height="51.573"/>
	</defs>
	<clipPath id="SVGID_20_">
		<use xlink:href="#SVGID_19_"  overflow="visible"/>
	</clipPath>
	<path clip-path="url(#SVGID_20_)" fill="#083C87" d="M50.581,33.359c0-9.117,4.979-11.771,20.532-11.771h1.679
		c-0.111-4.616-1.174-6.694-7.777-6.694c-3.916,0-7.217,1.442-9.175,2.712l-2.853-4.385c2.071-1.443,6.994-3.579,12.532-3.579
		c10.63,0,12.534,3.752,12.534,12.87v11.425c0,3.117,0.223,3.578,3.076,3.578v4.904c-0.393,0.117-1.119,0.117-2.238,0.117
		c-3.414,0-4.532-0.982-5.313-3.637c-1.847,2.713-5.204,4.154-11.861,4.154C52.762,43.055,50.581,38.783,50.581,33.359
		 M72.792,28.34v-1.962h-1.399c-12.812,0-15.608,1.499-15.608,6.577c0,3.406,1.511,5.254,6.826,5.254
		C69.827,38.209,72.792,35.207,72.792,28.34"/>
</g>
<g>
	<defs>
		<rect id="SVGID_21_" x="-0.001" y="0.427" width="143.69" height="51.573"/>
	</defs>
	<clipPath id="SVGID_22_">
		<use xlink:href="#SVGID_21_"  overflow="visible"/>
	</clipPath>
	<path clip-path="url(#SVGID_22_)" fill="#083C87" d="M81.625,33.359c0-9.117,4.98-11.771,20.535-11.771h1.678
		c-0.111-4.616-1.174-6.694-7.777-6.694c-3.916,0-7.217,1.442-9.174,2.712l-2.854-4.385c2.07-1.443,6.992-3.579,12.531-3.579
		c10.631,0,12.533,3.752,12.533,12.87v11.425c0,3.117,0.225,3.578,3.075,3.578v4.904c-0.394,0.117-1.118,0.117-2.237,0.117
		c-3.412,0-4.531-0.982-5.314-3.637c-1.846,2.713-5.203,4.154-11.861,4.154C83.809,43.055,81.625,38.783,81.625,33.359
		 M103.838,28.34v-1.962h-1.398c-12.813,0-15.608,1.499-15.608,6.577c0,3.406,1.512,5.254,6.826,5.254
		C100.873,38.209,103.838,35.207,103.838,28.34"/>
</g>
<g>
	<defs>
		<rect id="SVGID_23_" x="-0.001" y="0.427" width="143.69" height="51.573"/>
	</defs>
	<clipPath id="SVGID_24_">
		<use xlink:href="#SVGID_23_"  overflow="visible"/>
	</clipPath>
	<path clip-path="url(#SVGID_24_)" fill="#083C87" d="M113.531,10.68l4.309-0.287l0.449,3.405c1.678-2.714,5.146-4.156,12.084-4.156
		c10.461,0,13.316,6.868,13.316,16.735c0,9.754-2.965,16.621-13.539,16.621c-6.492,0-9.568-1.271-11.135-3.865V52h-5.484V10.68
		L113.531,10.68z M138.15,26.551c0-7.041-1.789-11.543-8.953-11.543c-7.328,0-10.182,3.002-10.182,11.543
		c0,8.484,2.688,11.367,10.182,11.367C136.248,37.918,138.15,33.592,138.15,26.551"/>
</g>
</svg>
