<?xml version="1.0" encoding="utf-8"?>
<!-- Generator: Adobe Illustrator 16.0.0, SVG Export Plug-In . SVG Version: 6.00 Build 0)  -->
<!DOCTYPE svg PUBLIC "-//W3C//DTD SVG 1.1//EN" "http://www.w3.org/Graphics/SVG/1.1/DTD/svg11.dtd">
<svg version="1.1" id="Layer_1" xmlns="http://www.w3.org/2000/svg" xmlns:xlink="http://www.w3.org/1999/xlink" x="0px" y="0px"
	 width="40px" height="40.003px" viewBox="0 0 40 40.003" enable-background="new 0 0 40 40.003" xml:space="preserve">
<g>
	<g>
		<g>
			<g>
				<defs>
					<path id="SVGID_1_" d="M32.394,14.156c6.624,3.329,6.565,9.835,5.465,14.5c1.367-2.709,2.11-5.771,2.052-9.004
						c-0.068-3.807-1.246-7.342-3.222-10.314C35.197,11.089,33.765,12.692,32.394,14.156"/>
				</defs>
				<clipPath id="SVGID_2_">
					<use xlink:href="#SVGID_1_"  overflow="visible"/>
				</clipPath>
				
					<linearGradient id="SVGID_3_" gradientUnits="userSpaceOnUse" x1="39.2007" y1="-47.0774" x2="40.0537" y2="-47.0774" gradientTransform="matrix(0 23.1129 -23.5852 0 -1074.1327 -895.2725)">
					<stop  offset="0" style="stop-color:#144E8B"/>
					<stop  offset="1" style="stop-color:#0094D9"/>
				</linearGradient>
				<rect x="32.394" y="9.338" clip-path="url(#SVGID_2_)" fill="url(#SVGID_3_)" width="7.575" height="19.319"/>
			</g>
		</g>
	</g>
</g>
<g>
	<g>
		<g>
			<g>
				<defs>
					<path id="SVGID_4_" d="M0.7,14.847L0.7,14.847c0.835,4.68,4.746,19.286,20.092,9.435c-2.81-4.956-3.731-8.947-3.475-12.156
						C12.768,12.426,7.288,13.281,0.7,14.847"/>
				</defs>
				<clipPath id="SVGID_5_">
					<use xlink:href="#SVGID_4_"  overflow="visible"/>
				</clipPath>
				
					<linearGradient id="SVGID_6_" gradientUnits="userSpaceOnUse" x1="14.1626" y1="-69.9221" x2="15.0149" y2="-69.9221" gradientTransform="matrix(-11.8149 19.3692 -19.765 -11.5782 -1195.8479 -1073.9963)">
					<stop  offset="0" style="stop-color:#204788"/>
					<stop  offset="0.1612" style="stop-color:#204788"/>
					<stop  offset="0.2122" style="stop-color:#1D5091"/>
					<stop  offset="0.5383" style="stop-color:#0E82C3"/>
					<stop  offset="0.7853" style="stop-color:#04A1E2"/>
					<stop  offset="0.9227" style="stop-color:#00ADEE"/>
					<stop  offset="1" style="stop-color:#00ADEE"/>
				</linearGradient>
				<polygon clip-path="url(#SVGID_5_)" fill="url(#SVGID_6_)" points="30.68,17.922 15.502,42.805 -9.19,28.341 5.989,3.457 				
					"/>
			</g>
		</g>
	</g>
</g>
<g>
	<g>
		<g>
			<g>
				<defs>
					<path id="SVGID_7_" d="M17.316,12.127c7.042-0.463,11.851,0.405,15.078,2.028c1.371-1.463,2.803-3.066,4.295-4.817
						c-2.5-3.76-6.281-6.618-10.725-7.992C22.034,3.12,17.775,6.362,17.316,12.127"/>
				</defs>
				<clipPath id="SVGID_8_">
					<use xlink:href="#SVGID_7_"  overflow="visible"/>
				</clipPath>
				
					<linearGradient id="SVGID_9_" gradientUnits="userSpaceOnUse" x1="33.6812" y1="11.8303" x2="34.535" y2="11.8303" gradientTransform="matrix(25.397 13.3098 -13.5819 24.8883 -682.2891 -742.5762)">
					<stop  offset="0" style="stop-color:#00ADEE"/>
					<stop  offset="0.3447" style="stop-color:#00ADEE"/>
					<stop  offset="0.4536" style="stop-color:#04A2E3"/>
					<stop  offset="0.6455" style="stop-color:#0F85C5"/>
					<stop  offset="0.8962" style="stop-color:#205696"/>
					<stop  offset="1" style="stop-color:#284180"/>
				</linearGradient>
				<polygon clip-path="url(#SVGID_8_)" fill="url(#SVGID_9_)" points="21.625,-6.549 42.125,4.194 32.38,22.05 11.881,11.305 				
					"/>
			</g>
		</g>
	</g>
</g>
<g>
	<g>
		<g>
			<g>
				<defs>
					<path id="SVGID_10_" d="M20.792,24.282c2.051,3.621,5.111,7.76,9.457,12.482c3.265-1.93,5.916-4.748,7.61-8.107
						c1.101-4.666,1.159-11.171-5.465-14.5C27.939,18.896,24.099,22.157,20.792,24.282"/>
				</defs>
				<clipPath id="SVGID_11_">
					<use xlink:href="#SVGID_10_"  overflow="visible"/>
				</clipPath>
				
					<linearGradient id="SVGID_12_" gradientUnits="userSpaceOnUse" x1="-30.0703" y1="-37.1165" x2="-29.2179" y2="-37.1165" gradientTransform="matrix(-46.8324 0 0 -45.8944 -1368.3198 -1677.9529)">
					<stop  offset="0" style="stop-color:#00ADEE"/>
					<stop  offset="0.1193" style="stop-color:#00ADEE"/>
					<stop  offset="0.2068" style="stop-color:#03A7E8"/>
					<stop  offset="0.3261" style="stop-color:#0A97D6"/>
					<stop  offset="0.463" style="stop-color:#157CBA"/>
					<stop  offset="0.5497" style="stop-color:#1E68A4"/>
					<stop  offset="1" style="stop-color:#1E68A4"/>
				</linearGradient>
				<rect x="20.792" y="14.156" clip-path="url(#SVGID_11_)" fill="url(#SVGID_12_)" width="18.227" height="22.605"/>
			</g>
		</g>
	</g>
</g>
<g>
	<g>
		<g>
			<g>
				<defs>
					<path id="SVGID_13_" d="M0,19.935v0.125c0,0.098,0.001,0.195,0.003,0.292c0.198,10.8,9.289,19.399,20.31,19.206
						c3.638-0.066,7.029-1.082,9.935-2.797c-4.346-4.723-7.406-8.857-9.457-12.479C5.446,34.134,1.535,19.527,0.7,14.848
						C0.249,16.471,0.005,18.177,0,19.935"/>
				</defs>
				<clipPath id="SVGID_14_">
					<use xlink:href="#SVGID_13_"  overflow="visible"/>
				</clipPath>
				
					<linearGradient id="SVGID_15_" gradientUnits="userSpaceOnUse" x1="15.167" y1="14.6843" x2="16.0183" y2="14.6843" gradientTransform="matrix(38.4075 7.4271 -7.5789 37.6382 -472.4582 -641.2377)">
					<stop  offset="0" style="stop-color:#274185"/>
					<stop  offset="0.2424" style="stop-color:#274185"/>
					<stop  offset="0.4968" style="stop-color:#1A5499"/>
					<stop  offset="0.9273" style="stop-color:#007DC4"/>
					<stop  offset="1" style="stop-color:#007DC4"/>
				</linearGradient>
				<polygon clip-path="url(#SVGID_14_)" fill="url(#SVGID_15_)" points="1.134,9.218 35.075,15.781 29.116,45.38 -4.826,38.815 
									"/>
			</g>
		</g>
	</g>
</g>
<g>
	<g>
		<g>
			<g>
				<defs>
					<path id="SVGID_16_" d="M19.941,0.443c-0.115,0-0.229,0.001-0.342,0.004c-9.075,0.16-16.626,6.23-18.899,14.4
						c6.588-1.566,12.068-2.42,16.617-2.719c0.458-5.766,4.717-9.008,8.647-10.782c-1.894-0.585-3.904-0.9-5.989-0.902h-0.034V0.443
						z"/>
				</defs>
				<clipPath id="SVGID_17_">
					<use xlink:href="#SVGID_16_"  overflow="visible"/>
				</clipPath>
				
					<linearGradient id="SVGID_18_" gradientUnits="userSpaceOnUse" x1="-35.5449" y1="76.5378" x2="-34.6918" y2="76.5378" gradientTransform="matrix(10.438 -12.1903 12.4395 10.2289 -574.7725 -1200.3552)">
					<stop  offset="0" style="stop-color:#274185"/>
					<stop  offset="0.2424" style="stop-color:#274185"/>
					<stop  offset="0.4968" style="stop-color:#1A5499"/>
					<stop  offset="0.9273" style="stop-color:#007DC4"/>
					<stop  offset="1" style="stop-color:#007DC4"/>
				</linearGradient>
				<polygon clip-path="url(#SVGID_17_)" fill="url(#SVGID_18_)" points="-6.538,8.896 11.138,-11.748 33.201,6.394 15.525,27.038 
									"/>
			</g>
		</g>
	</g>
</g>
<rect x="-0.001" y="0.427" display="none" fill="none" width="143.69" height="51.573"/>
</svg>
