<?xml version="1.0" encoding="utf-8"?>
<!-- Generator: Adobe Illustrator 16.0.0, SVG Export Plug-In . SVG Version: 6.00 Build 0)  -->
<!DOCTYPE svg PUBLIC "-//W3C//DTD SVG 1.1//EN" "http://www.w3.org/Graphics/SVG/1.1/DTD/svg11.dtd">
<svg version="1.1" id="Layer_1" xmlns="http://www.w3.org/2000/svg" xmlns:xlink="http://www.w3.org/1999/xlink" x="0px" y="0px"
	 width="40px" height="40px" viewBox="0 0 40 40" enable-background="new 0 0 40 40" xml:space="preserve">
<path fill="#76C7A1" d="M36.626,9.514L20.512,0.218c-0.403-0.233-0.898-0.233-1.302,0L3.056,9.514
	c-0.402,0.231-0.649,0.659-0.651,1.123v18.629c0.002,0.468,0.25,0.892,0.651,1.128l16.131,9.32c0.404,0.233,0.901,0.233,1.304,0
	l16.136-9.315c0.402-0.229,0.65-0.659,0.652-1.125V10.642C37.278,10.177,37.03,9.746,36.626,9.514z M19.839,2.83l14.537,8.391
	l-5.14,3.067c-0.102-0.124-0.224-0.228-0.361-0.309l-8.363-4.842c-0.403-0.232-0.898-0.232-1.302,0l-8.407,4.848
	c-0.145,0.084-0.271,0.195-0.373,0.327l-5.233-3.022L19.839,2.83L19.839,2.83z M5.01,28.514V11.61l5.229,3.022
	c-0.061,0.153-0.094,0.317-0.095,0.483v9.683c0.002,0.466,0.25,0.892,0.651,1.124l8.391,4.853c0.134,0.077,0.281,0.129,0.433,0.152
	v6.026L5.012,28.514H5.01z M19.996,36.99v-6.055c0.182-0.019,0.358-0.073,0.517-0.163l8.37-4.847
	c0.555-0.388,0.723-1.137,0.382-1.722c-0.342-0.588-1.073-0.815-1.686-0.524l-7.734,4.493l-7.09-4.129v-8.176l7.084-4.095
	l7.733,4.494c0.483,0.287,1.098,0.229,1.519-0.141c0.422-0.372,0.558-0.971,0.337-1.488l5.237-3.129v17.004L19.996,36.99
	L19.996,36.99z"/>
</svg>
